<svg width="260" height="209" viewBox="0 0 260 209" fill="none" xmlns="http://www.w3.org/2000/svg">
<g clip-path="url(#clip0_5565_351)">
<path d="M6.46094 208.492C6.46094 208.774 6.68654 209 6.96747 209H259.493C259.774 209 260 208.774 260 208.492C260 208.21 259.774 207.984 259.493 207.984H6.96747C6.68654 207.984 6.46094 208.21 6.46094 208.492Z" fill="#2F2E43"/>
<path d="M137.41 158.358C136.717 162.573 133.06 165.799 128.663 165.799C124.267 165.799 120.61 162.573 119.916 158.358H97.5381V206.998H159.789V158.358H137.41Z" fill="#B6B3C5"/>
<path d="M104.777 206.816H98.624V207.905H104.777V206.816Z" fill="#B6B3C5"/>
<path d="M159.245 206.998H153.093V208.087H159.245V206.998Z" fill="#B6B3C5"/>
<path d="M159.969 203.144H97.7188V204.837H159.969V203.144Z" fill="#2F2E41"/>
<path d="M253.856 159.629H3.47042C1.55681 159.629 0 158.067 0 156.148V12.8347C0 10.9156 1.55681 9.35413 3.47042 9.35413H253.856C255.769 9.35413 257.326 10.9156 257.326 12.8347V156.148C257.326 158.067 255.769 159.629 253.856 159.629Z" fill="#2F2E41"/>
<path d="M251.355 15.5248H6.33398V154.184H251.355V15.5248Z" fill="white"/>
<path d="M222.245 68.7755H208.875C207.714 68.7755 206.769 67.8277 206.769 66.6625C206.769 65.4973 207.714 64.5494 208.875 64.5494H222.245C223.407 64.5494 224.352 65.4973 224.352 66.6625C224.352 67.8277 223.407 68.7755 222.245 68.7755Z" fill="#D1D1D2"/>
<path d="M237.62 68.7755H231.381C230.22 68.7755 229.274 67.8277 229.274 66.6625C229.274 65.4973 230.22 64.5494 231.381 64.5494H237.62C238.782 64.5494 239.727 65.4973 239.727 66.6625C239.727 67.8277 238.782 68.7755 237.62 68.7755Z" fill="#D1D1D2"/>
<path d="M88.3867 70.3893H47.6922C45.6149 70.3893 43.9248 68.6942 43.9248 66.6107C43.9248 64.5273 45.6149 62.8322 47.6922 62.8322H88.3867C90.4642 62.8322 92.1542 64.5273 92.1542 66.6107C92.1542 68.6942 90.4641 70.3893 88.3867 70.3893Z" fill="#8897AC"/>
<path d="M66.3234 80.4697H46.7116C45.4453 80.4697 44.415 79.4364 44.415 78.1665C44.415 76.8964 45.4453 75.8632 46.7116 75.8632H66.3234C67.5897 75.8632 68.6199 76.8964 68.6199 78.1665C68.6199 79.4364 67.5897 80.4697 66.3234 80.4697Z" fill="#D1D1D2"/>
<path d="M174.433 89.5668H46.2213C44.9551 89.5668 43.9248 88.5335 43.9248 87.2635C43.9248 85.9934 44.9551 84.9601 46.2213 84.9601H174.433C175.7 84.9601 176.73 85.9934 176.73 87.2635C176.73 88.5335 175.7 89.5668 174.433 89.5668Z" fill="#D1D1D2"/>
<path d="M163.402 95.7135H46.2213C44.9551 95.7135 43.9248 94.6802 43.9248 93.4101C43.9248 92.1402 44.9551 91.1069 46.2213 91.1069H163.402C164.668 91.1069 165.698 92.1402 165.698 93.4101C165.698 94.6802 164.668 95.7135 163.402 95.7135Z" fill="#D1D1D2"/>
<path d="M237.237 184.439L231.356 190.632L225.088 184.821L230.969 178.627L237.237 184.439Z" fill="#ED9DA0"/>
<path d="M241.935 190.782L229.433 203.948C228.365 205.073 227.03 205.962 225.574 206.519L222.088 207.851C221.368 208.127 220.538 207.967 219.974 207.445C219.314 206.832 219.146 205.85 219.568 205.058L222.92 198.75L226.498 185.959L226.537 185.984C227.51 186.585 228.986 187.486 229.091 187.525C230.944 187.59 232.27 187.123 233.033 186.136C234.365 184.414 233.52 181.666 233.512 181.638L233.505 181.617L233.522 181.603C233.91 181.27 234.319 181.137 234.737 181.207C235.625 181.356 236.26 182.356 236.353 182.51C237.186 182.475 239.744 184.484 239.95 184.647C241.206 184.644 242.126 184.942 242.686 185.535C243.176 186.053 243.389 186.788 243.32 187.72C243.237 188.842 242.745 189.929 241.935 190.782Z" fill="#282828"/>
<path d="M230.447 191.57H221.852V200.063H230.447V191.57Z" fill="#ED9DA0"/>
<path d="M228.98 207.788H210.709C209.148 207.788 207.578 207.435 206.171 206.767L202.803 205.167C202.106 204.836 201.656 204.129 201.656 203.365C201.656 202.47 202.266 201.678 203.14 201.439L210.088 199.539L221.976 193.365L221.985 193.409C222.207 194.522 222.552 196.203 222.596 196.305C223.815 197.685 225.067 198.32 226.318 198.195C228.499 197.977 229.95 195.487 229.964 195.462L229.975 195.443L229.998 195.445C230.508 195.497 230.886 195.701 231.121 196.05C231.619 196.792 231.315 197.934 231.265 198.106C231.861 198.682 232.128 201.9 232.149 202.16C233.011 203.063 233.421 203.931 233.366 204.739C233.319 205.446 232.922 206.103 232.187 206.691C231.302 207.399 230.163 207.788 228.98 207.788Z" fill="#282828"/>
<path d="M231.468 84.6046L201.011 84.6195L190.858 148.139L221.315 184.444L231.468 175.368L207.398 148.139L231.468 84.6046Z" fill="#282828"/>
<path d="M213.466 93.968L231.468 84.6046V193.521L221.315 193.8L213.466 93.968Z" fill="#282828"/>
<path d="M195.434 110.076L195.648 100.162L189.876 100.036L189.662 109.951C188.585 110.954 187.874 112.511 187.836 114.278C187.769 117.368 189.782 119.919 192.332 119.974C194.882 120.03 197.004 117.569 197.071 114.479C197.109 112.712 196.466 111.125 195.434 110.076Z" fill="#ED9DA0"/>
<path d="M222.805 13.2469C222.805 13.2469 231.09 13.2289 227.995 5.22198C224.9 -2.78495 219.136 0.800192 219.136 0.800192C219.136 0.800192 216.708 2.08674 217.209 4.95717" fill="#282828"/>
<path d="M223.634 17.0875C223.634 10.9485 218.672 5.97192 212.551 5.97192C206.43 5.97192 201.468 10.9485 201.468 17.0875C201.468 22.0662 204.732 26.2799 209.23 27.695L211.373 41.8962L222.296 32.7675C222.296 32.7675 219.936 29.7532 218.67 26.3543C221.661 24.3637 223.634 20.9573 223.634 17.0875Z" fill="#ED9DA0"/>
<path d="M217.875 26.4775C217.875 26.4775 219.347 20.8182 216.941 18.216C214.54 15.6197 214.229 19.6594 214.229 19.6594L212.497 19.2816C212.497 19.2816 212.798 15.3531 209.408 14.6732L211.593 9.98912C211.593 9.98912 203.229 11.6178 202.999 10.8054C201.185 4.41302 218.489 -1.04755 223.269 8.70479C230.703 23.8729 217.875 26.4775 217.875 26.4775Z" fill="#282828"/>
<path d="M208.086 36.3801C200.04 37.957 194.001 44.6762 193.268 52.8659L188.26 108.873H197.049L208.086 36.3801Z" fill="#8897AC"/>
<path d="M199.776 81.0034L198.407 96.8173L235.563 85.8572L231.035 74.4273L239.466 55.0122L222.257 30.2737L208.519 31.2131L203.211 38.1023" fill="#8897AC"/>
<path d="M230.076 96.0216L235.258 87.5755L230.341 84.5409L225.159 92.987C223.724 93.3061 222.325 94.2899 221.402 95.7946C219.787 98.4273 220.238 101.649 222.411 102.989C224.583 104.33 227.654 103.283 229.269 100.65C230.193 99.1454 230.438 97.4498 230.076 96.0216Z" fill="#ED9DA0"/>
<path d="M219.446 30.5868L222.442 30.4622L227.564 34.3446C233.634 35.3826 235.394 35.6737 237.254 39.6945C238.035 41.3841 238.553 43.1841 238.843 45.0238L243.176 72.5484L232.284 98.8527L225.066 90.7109L232.782 70.1456L231.5 65.2263" fill="#8897AC"/>
</g>
<defs>
<clipPath id="clip0_5565_351">
<rect width="260" height="209" fill="white"/>
</clipPath>
</defs>
</svg>
