<svg width="24" height="24" viewBox="0 0 24 24" fill="none" xmlns="http://www.w3.org/2000/svg">
<path d="M20.1 17.35C20.0941 16.5664 19.7818 15.8163 19.23 15.26L19 15C18.1378 14.1379 16.9692 13.6525 15.75 13.65C15.0554 13.6552 14.3713 13.8194 13.75 14.13L12.9 14.55C12.1765 14.1996 11.5172 13.7297 10.95 13.16C10.3815 12.5751 9.91504 11.8991 9.57001 11.16L9.99001 10.31C10.3057 9.69017 10.4734 9.00558 10.48 8.31C10.4696 7.70135 10.3388 7.10079 10.0951 6.54298C9.85134 5.98516 9.49955 5.48114 9.06001 5.06L8.78001 4.79C8.21794 4.22723 7.45539 3.9107 6.66001 3.91H5.82001C5.02436 3.91 4.2613 4.22607 3.69869 4.78868C3.13608 5.35129 2.82001 6.11435 2.82001 6.91V7C2.85157 8.64043 3.10727 10.2688 3.58001 11.84C4.19477 13.875 5.29265 15.7311 6.78001 17.25C8.2935 18.7415 10.1466 19.8431 12.18 20.46C13.7499 20.9396 15.3788 21.1988 17.02 21.23H17.09C17.8857 21.23 18.6487 20.9139 19.2113 20.3513C19.7739 19.7887 20.09 19.0256 20.09 18.23V17.39L20.1 17.35ZM17.1 19.21C15.6484 19.1867 14.2074 18.9578 12.82 18.53C11.0944 18.0089 9.51986 17.0792 8.23001 15.82C6.97344 14.5298 6.04717 12.9551 5.53001 11.23C5.10969 9.83779 4.88421 8.39407 4.86001 6.94C4.86001 6.67478 4.96536 6.42043 5.1529 6.23289C5.34044 6.04536 5.59479 5.94 5.86001 5.94H6.70001C6.83161 5.93924 6.96208 5.96446 7.08391 6.01423C7.20575 6.06399 7.31657 6.13732 7.41001 6.23L7.68001 6.5C8.14488 6.98359 8.40313 7.62921 8.40001 8.3C8.40007 8.70022 8.30405 9.0946 8.12001 9.45L7.49001 10.72C7.43058 10.8503 7.39983 10.9918 7.39983 11.135C7.39983 11.2782 7.43058 11.4197 7.49001 11.55C7.95204 12.6722 8.63179 13.6919 9.49001 14.55C10.3478 15.4086 11.3675 16.0884 12.49 16.55C12.6203 16.6094 12.7618 16.6402 12.905 16.6402C13.0482 16.6402 13.1897 16.6094 13.32 16.55L14.59 15.91C15.0772 15.662 15.6307 15.5758 16.1702 15.6639C16.7097 15.752 17.2071 16.0099 17.59 16.4L17.86 16.68C18.0448 16.8663 18.1489 17.1177 18.15 17.38V18.21C18.1503 18.3465 18.1225 18.4817 18.0686 18.6071C18.0146 18.7325 17.9355 18.8455 17.8362 18.9392C17.7369 19.0329 17.6195 19.1052 17.4911 19.1518C17.3628 19.1984 17.2263 19.2182 17.09 19.21H17.1ZM12.44 7.4C12.4029 7.13744 12.4716 6.8709 12.631 6.659C12.7904 6.44709 13.0275 6.30717 13.29 6.27C13.4564 6.257 13.6236 6.257 13.79 6.27C14.2207 6.27608 14.6483 6.34343 15.06 6.47C15.6483 6.65777 16.1831 6.98359 16.6198 7.42025C17.0564 7.85691 17.3822 8.39171 17.57 8.98C17.699 9.39087 17.7631 9.81936 17.76 10.25C17.7765 10.4163 17.7765 10.5837 17.76 10.75C17.7242 11.0152 17.5845 11.2553 17.3717 11.4176C17.1588 11.5798 16.8902 11.6508 16.625 11.615C16.3598 11.5792 16.1197 11.4395 15.9574 11.2266C15.7952 11.0138 15.7242 10.7452 15.76 10.48C15.76 10.48 15.76 10.38 15.76 10.25C15.765 10.0226 15.7312 9.79602 15.66 9.58C15.5741 9.29673 15.4196 9.03902 15.2103 8.8297C15.001 8.62039 14.7433 8.46593 14.46 8.38C14.2431 8.31137 14.0175 8.27432 13.79 8.27C13.7168 8.26353 13.6432 8.26353 13.57 8.27C13.4385 8.28822 13.3047 8.28009 13.1764 8.24606C13.0481 8.21204 12.9278 8.15281 12.8227 8.07183C12.7175 7.99085 12.6295 7.88974 12.5638 7.77439C12.4981 7.65905 12.456 7.53178 12.44 7.4ZM21.61 9.28V9.42C21.61 9.68522 21.5047 9.93957 21.3171 10.1271C21.1296 10.3146 20.8752 10.42 20.61 10.42C20.3448 10.42 20.0904 10.3146 19.9029 10.1271C19.7154 9.93957 19.61 9.68522 19.61 9.42V9.32C19.6065 8.83919 19.5358 8.36124 19.4 7.9C19.1823 7.118 18.7686 6.4045 18.1982 5.82703C17.6277 5.24956 16.9193 4.82722 16.14 4.6C15.6788 4.46418 15.2008 4.3935 14.72 4.39H14.63C14.4987 4.39328 14.368 4.37067 14.2454 4.32345C14.1228 4.27622 14.0108 4.20532 13.9156 4.11478C13.8204 4.02425 13.744 3.91585 13.6907 3.79578C13.6374 3.67571 13.6083 3.54632 13.605 3.415C13.6017 3.28368 13.6243 3.15299 13.6716 3.03041C13.7188 2.90783 13.7897 2.79575 13.8802 2.70057C13.9708 2.60539 14.0792 2.52897 14.1992 2.47569C14.3193 2.4224 14.4487 2.39328 14.58 2.39H14.72C15.3977 2.39266 16.0714 2.49372 16.72 2.69C17.8118 3.00798 18.8057 3.59622 19.6097 4.40028C20.4138 5.20434 21.002 6.19825 21.32 7.29C21.5133 7.93561 21.611 8.60606 21.61 9.28Z" fill="white"/>
</svg>
