<svg width="29" height="29" viewBox="0 0 29 29" fill="none" xmlns="http://www.w3.org/2000/svg">
<path d="M3.625 7.24996C3.625 6.92949 3.75231 6.62215 3.97891 6.39554C4.20552 6.16893 4.51286 6.04163 4.83333 6.04163H24.1667C24.4871 6.04163 24.7945 6.16893 25.0211 6.39554C25.2477 6.62215 25.375 6.92949 25.375 7.24996C25.375 7.57043 25.2477 7.87777 25.0211 8.10438C24.7945 8.33099 24.4871 8.45829 24.1667 8.45829H4.83333C4.51286 8.45829 4.20552 8.33099 3.97891 8.10438C3.75231 7.87777 3.625 7.57043 3.625 7.24996ZM24.1667 13.2916H4.83333C4.51286 13.2916 4.20552 13.4189 3.97891 13.6455C3.75231 13.8721 3.625 14.1795 3.625 14.5C3.625 14.8204 3.75231 15.1278 3.97891 15.3544C4.20552 15.581 4.51286 15.7083 4.83333 15.7083H24.1667C24.4871 15.7083 24.7945 15.581 25.0211 15.3544C25.2477 15.1278 25.375 14.8204 25.375 14.5C25.375 14.1795 25.2477 13.8721 25.0211 13.6455C24.7945 13.4189 24.4871 13.2916 24.1667 13.2916ZM24.1667 20.5416H4.83333C4.51286 20.5416 4.20552 20.6689 3.97891 20.8955C3.75231 21.1221 3.625 21.4295 3.625 21.75C3.625 22.0704 3.75231 22.3778 3.97891 22.6044C4.20552 22.831 4.51286 22.9583 4.83333 22.9583H24.1667C24.4871 22.9583 24.7945 22.831 25.0211 22.6044C25.2477 22.3778 25.375 22.0704 25.375 21.75C25.375 21.4295 25.2477 21.1221 25.0211 20.8955C24.7945 20.6689 24.4871 20.5416 24.1667 20.5416Z" fill="white"/>
</svg>
