<svg width="212" height="40" viewBox="0 0 212 40" fill="none" xmlns="http://www.w3.org/2000/svg">
<path d="M140.96 32.32C139.275 32.32 137.717 32.0427 136.288 31.488C134.88 30.912 133.653 30.112 132.608 29.088C131.584 28.0427 130.784 26.816 130.208 25.408C129.653 23.9787 129.376 22.4213 129.376 20.736C129.376 19.072 129.664 17.536 130.24 16.128C130.837 14.72 131.669 13.4933 132.736 12.448C133.803 11.4027 135.051 10.592 136.48 10.016C137.931 9.44 139.499 9.152 141.184 9.152C142.251 9.152 143.296 9.29067 144.32 9.568C145.344 9.84533 146.293 10.2613 147.168 10.816C148.064 11.3493 148.832 12 149.472 12.768L146.112 16.576C145.451 15.8507 144.704 15.2853 143.872 14.88C143.061 14.4747 142.155 14.272 141.152 14.272C140.299 14.272 139.488 14.4213 138.72 14.72C137.973 15.0187 137.323 15.456 136.768 16.032C136.213 16.608 135.776 17.2907 135.456 18.08C135.136 18.8693 134.976 19.7653 134.976 20.768C134.976 21.7493 135.125 22.6453 135.424 23.456C135.744 24.2453 136.192 24.928 136.768 25.504C137.365 26.0587 138.069 26.4853 138.88 26.784C139.712 27.0827 140.629 27.232 141.632 27.232C142.293 27.232 142.923 27.1467 143.52 26.976C144.139 26.784 144.715 26.5173 145.248 26.176C145.781 25.8347 146.24 25.4507 146.624 25.024L149.28 29.248C148.768 29.824 148.064 30.3467 147.168 30.816C146.293 31.2853 145.312 31.6587 144.224 31.936C143.157 32.192 142.069 32.32 140.96 32.32Z" fill="#628DCF"/>
<path d="M158.992 32.32C157.307 32.32 155.749 32.032 154.32 31.456C152.912 30.88 151.685 30.08 150.64 29.056C149.616 28.0107 148.816 26.784 148.24 25.376C147.664 23.9467 147.376 22.3893 147.376 20.704C147.376 19.04 147.664 17.504 148.24 16.096C148.816 14.6667 149.616 13.4293 150.64 12.384C151.685 11.3387 152.912 10.528 154.32 9.952C155.749 9.376 157.307 9.088 158.992 9.088C160.656 9.088 162.192 9.376 163.6 9.952C165.008 10.528 166.224 11.3387 167.248 12.384C168.293 13.4293 169.104 14.6667 169.68 16.096C170.256 17.504 170.544 19.0507 170.544 20.736C170.544 22.4 170.256 23.936 169.68 25.344C169.104 26.752 168.293 27.9787 167.248 29.024C166.224 30.0693 165.008 30.88 163.6 31.456C162.192 32.032 160.656 32.32 158.992 32.32ZM158.992 27.168C159.867 27.168 160.667 27.008 161.392 26.688C162.117 26.368 162.747 25.92 163.28 25.344C163.835 24.768 164.261 24.0853 164.56 23.296C164.859 22.5067 165.008 21.6533 165.008 20.736C165.008 19.7973 164.859 18.9333 164.56 18.144C164.261 17.3547 163.835 16.672 163.28 16.096C162.747 15.4987 162.117 15.04 161.392 14.72C160.667 14.4 159.867 14.24 158.992 14.24C158.117 14.24 157.307 14.4 156.56 14.72C155.835 15.04 155.195 15.4987 154.64 16.096C154.107 16.672 153.691 17.3547 153.392 18.144C153.093 18.9333 152.944 19.7973 152.944 20.736C152.944 21.9733 153.2 23.0827 153.712 24.064C154.245 25.024 154.96 25.7813 155.856 26.336C156.773 26.8907 157.819 27.168 158.992 27.168Z" fill="#628DCF"/>
<path d="M0 32L8.864 9.6H13.504L22.304 32H16.8L12.544 20.64C12.3947 20.192 12.224 19.712 12.032 19.2C11.8613 18.688 11.6907 18.1547 11.52 17.6C11.3493 17.0453 11.1893 16.512 11.04 16C10.8907 15.488 10.7627 15.008 10.656 14.56L11.584 14.528C11.456 15.0613 11.3173 15.584 11.168 16.096C11.0187 16.608 10.8587 17.12 10.688 17.632C10.5173 18.144 10.336 18.656 10.144 19.168C9.97333 19.6587 9.792 20.1707 9.6 20.704L5.376 32H0ZM4.224 27.712L5.952 23.552H16.192L17.92 27.712H4.224ZM25.0965 32V9.6H40.7125V14.272H30.4405V27.328H41.0645V32H25.0965ZM27.6885 22.848V18.368H39.3045V22.848H27.6885ZM52.0575 32L43.0975 9.6H48.7935L53.0815 20.896C53.3375 21.5573 53.5508 22.144 53.7215 22.656C53.9135 23.168 54.0735 23.648 54.2015 24.096C54.3508 24.5227 54.4895 24.96 54.6175 25.408C54.7455 25.8347 54.8842 26.3253 55.0335 26.88H54.0415C54.2335 26.1333 54.4148 25.472 54.5855 24.896C54.7562 24.32 54.9482 23.7227 55.1615 23.104C55.3748 22.4853 55.6415 21.7493 55.9615 20.896L60.0895 9.6H65.6575L56.6655 32H52.0575ZM78.0998 32.192C76.2438 32.192 74.5904 31.8187 73.1398 31.072C71.7104 30.304 70.5798 29.2587 69.7478 27.936C68.9158 26.592 68.4998 25.0773 68.4998 23.392V9.568H74.0038V23.104C74.0038 23.9147 74.1851 24.64 74.5478 25.28C74.9104 25.92 75.4011 26.432 76.0198 26.816C76.6598 27.1787 77.3531 27.36 78.0998 27.36C78.8891 27.36 79.6038 27.1787 80.2438 26.816C80.8838 26.432 81.3851 25.92 81.7478 25.28C82.1318 24.64 82.3238 23.9147 82.3238 23.104V9.568H87.6358V23.392C87.6358 25.0773 87.2198 26.592 86.3878 27.936C85.5771 29.2587 84.4571 30.304 83.0278 31.072C81.5984 31.8187 79.9558 32.192 78.0998 32.192ZM93.0653 32V9.6H97.9613L106.089 22.816L102.633 22.784L110.857 9.6H115.593V32H110.281V25.216C110.281 23.2533 110.324 21.4933 110.409 19.936C110.516 18.3573 110.687 16.8107 110.921 15.296L111.529 16.96L105.353 26.528H103.177L97.1293 17.024L97.7373 15.296C97.9933 16.7253 98.1639 18.208 98.2493 19.744C98.3559 21.2587 98.4093 23.0827 98.4093 25.216V32H93.0653Z" fill="#E7D9D9"/>
<path d="M172.253 32V9.6H181.693C183.335 9.6 184.839 9.87733 186.205 10.432C187.57 10.9653 188.743 11.7333 189.725 12.736C190.706 13.7173 191.463 14.9013 191.997 16.288C192.53 17.6533 192.797 19.1573 192.797 20.8C192.797 22.464 192.53 23.9787 191.997 25.344C191.463 26.7093 190.706 27.8933 189.725 28.896C188.743 29.8773 187.57 30.6453 186.205 31.2C184.861 31.7333 183.357 32 181.693 32H172.253ZM177.725 28.224L177.021 27.168H181.533C182.407 27.168 183.197 27.0187 183.901 26.72C184.605 26.4213 185.202 25.9947 185.693 25.44C186.205 24.864 186.589 24.192 186.845 23.424C187.122 22.6347 187.261 21.76 187.261 20.8C187.261 19.84 187.122 18.976 186.845 18.208C186.589 17.4187 186.205 16.7467 185.693 16.192C185.202 15.616 184.605 15.1787 183.901 14.88C183.197 14.5813 182.407 14.432 181.533 14.432H176.925L177.725 13.44V28.224ZM194.091 32V9.6H209.707V14.272H199.435V27.328H210.059V32H194.091ZM196.683 22.848V18.368H208.299V22.848H196.683Z" fill="#628DCF"/>
</svg>
