<svg width="71" height="74" viewBox="0 0 71 74" fill="none" xmlns="http://www.w3.org/2000/svg">
<path d="M16.2 40.4C14.0933 40.4 12.1467 40.0533 10.36 39.36C8.6 38.64 7.06667 37.64 5.76 36.36C4.48 35.0533 3.48 33.52 2.76 31.76C2.06667 29.9733 1.72 28.0267 1.72 25.92C1.72 23.84 2.08 21.92 2.8 20.16C3.54667 18.4 4.58667 16.8667 5.92 15.56C7.25333 14.2533 8.81333 13.24 10.6 12.52C12.4133 11.8 14.3733 11.44 16.48 11.44C17.8133 11.44 19.12 11.6133 20.4 11.96C21.68 12.3067 22.8667 12.8267 23.96 13.52C25.08 14.1867 26.04 15 26.84 15.96L22.64 20.72C21.8133 19.8133 20.88 19.1067 19.84 18.6C18.8267 18.0933 17.6933 17.84 16.44 17.84C15.3733 17.84 14.36 18.0267 13.4 18.4C12.4667 18.7733 11.6533 19.32 10.96 20.04C10.2667 20.76 9.72 21.6133 9.32 22.6C8.92 23.5867 8.72 24.7067 8.72 25.96C8.72 27.1867 8.90667 28.3067 9.28 29.32C9.68 30.3067 10.24 31.16 10.96 31.88C11.7067 32.5733 12.5867 33.1067 13.6 33.48C14.64 33.8533 15.7867 34.04 17.04 34.04C17.8667 34.04 18.6533 33.9333 19.4 33.72C20.1733 33.48 20.8933 33.1467 21.56 32.72C22.2267 32.2933 22.8 31.8133 23.28 31.28L26.6 36.56C25.96 37.28 25.08 37.9333 23.96 38.52C22.8667 39.1067 21.64 39.5733 20.28 39.92C18.9467 40.24 17.5867 40.4 16.2 40.4Z" fill="#628DCF"/>
<path d="M38.24 40.4C36.1333 40.4 34.1867 40.04 32.4 39.32C30.64 38.6 29.1067 37.6 27.8 36.32C26.52 35.0133 25.52 33.48 24.8 31.72C24.08 29.9333 23.72 27.9867 23.72 25.88C23.72 23.8 24.08 21.88 24.8 20.12C25.52 18.3333 26.52 16.7867 27.8 15.48C29.1067 14.1733 30.64 13.16 32.4 12.44C34.1867 11.72 36.1333 11.36 38.24 11.36C40.32 11.36 42.24 11.72 44 12.44C45.76 13.16 47.28 14.1733 48.56 15.48C49.8667 16.7867 50.88 18.3333 51.6 20.12C52.32 21.88 52.68 23.8133 52.68 25.92C52.68 28 52.32 29.92 51.6 31.68C50.88 33.44 49.8667 34.9733 48.56 36.28C47.28 37.5867 45.76 38.6 44 39.32C42.24 40.04 40.32 40.4 38.24 40.4ZM38.24 33.96C39.3333 33.96 40.3333 33.76 41.24 33.36C42.1467 32.96 42.9333 32.4 43.6 31.68C44.2933 30.96 44.8267 30.1067 45.2 29.12C45.5733 28.1333 45.76 27.0667 45.76 25.92C45.76 24.7467 45.5733 23.6667 45.2 22.68C44.8267 21.6933 44.2933 20.84 43.6 20.12C42.9333 19.3733 42.1467 18.8 41.24 18.4C40.3333 18 39.3333 17.8 38.24 17.8C37.1467 17.8 36.1333 18 35.2 18.4C34.2933 18.8 33.4933 19.3733 32.8 20.12C32.1333 20.84 31.6133 21.6933 31.24 22.68C30.8667 23.6667 30.68 24.7467 30.68 25.92C30.68 27.4667 31 28.8533 31.64 30.08C32.3067 31.28 33.2 32.2267 34.32 32.92C35.4667 33.6133 36.7733 33.96 38.24 33.96Z" fill="#628DCF"/>
<path d="M3.48 72V44H15.28C17.3333 44 19.2133 44.3467 20.92 45.04C22.6267 45.7067 24.0933 46.6667 25.32 47.92C26.5467 49.1467 27.4933 50.6267 28.16 52.36C28.8267 54.0667 29.16 55.9467 29.16 58C29.16 60.08 28.8267 61.9733 28.16 63.68C27.4933 65.3867 26.5467 66.8667 25.32 68.12C24.0933 69.3467 22.6267 70.3067 20.92 71C19.24 71.6667 17.36 72 15.28 72H3.48ZM10.32 67.28L9.44 65.96H15.08C16.1733 65.96 17.16 65.7733 18.04 65.4C18.92 65.0267 19.6667 64.4933 20.28 63.8C20.92 63.08 21.4 62.24 21.72 61.28C22.0667 60.2933 22.24 59.2 22.24 58C22.24 56.8 22.0667 55.72 21.72 54.76C21.4 53.7733 20.92 52.9333 20.28 52.24C19.6667 51.52 18.92 50.9733 18.04 50.6C17.16 50.2267 16.1733 50.04 15.08 50.04H9.32L10.32 48.8V67.28ZM31.1784 72V44H50.6984V49.84H37.8584V66.16H51.1384V72H31.1784ZM34.4184 60.56V54.96H48.9384V60.56H34.4184Z" fill="white"/>
</svg>
