<svg width="71" height="61" viewBox="0 0 71 61" fill="none" xmlns="http://www.w3.org/2000/svg">
<path d="M8.1 20.2C7.04667 20.2 6.07333 20.0267 5.18 19.68C4.3 19.32 3.53333 18.82 2.88 18.18C2.24 17.5267 1.74 16.76 1.38 15.88C1.03333 14.9867 0.86 14.0133 0.86 12.96C0.86 11.92 1.04 10.96 1.4 10.08C1.77333 9.2 2.29333 8.43333 2.96 7.78C3.62667 7.12667 4.40667 6.62 5.3 6.26C6.20667 5.9 7.18667 5.72 8.24 5.72C8.90667 5.72 9.56 5.80667 10.2 5.98C10.84 6.15333 11.4333 6.41333 11.98 6.76C12.54 7.09333 13.02 7.5 13.42 7.98L11.32 10.36C10.9067 9.90667 10.44 9.55333 9.92 9.3C9.41333 9.04667 8.84667 8.92 8.22 8.92C7.68667 8.92 7.18 9.01333 6.7 9.2C6.23333 9.38667 5.82667 9.66 5.48 10.02C5.13333 10.38 4.86 10.8067 4.66 11.3C4.46 11.7933 4.36 12.3533 4.36 12.98C4.36 13.5933 4.45333 14.1533 4.64 14.66C4.84 15.1533 5.12 15.58 5.48 15.94C5.85333 16.2867 6.29333 16.5533 6.8 16.74C7.32 16.9267 7.89333 17.02 8.52 17.02C8.93333 17.02 9.32667 16.9667 9.7 16.86C10.0867 16.74 10.4467 16.5733 10.78 16.36C11.1133 16.1467 11.4 15.9067 11.64 15.64L13.3 18.28C12.98 18.64 12.54 18.9667 11.98 19.26C11.4333 19.5533 10.82 19.7867 10.14 19.96C9.47333 20.12 8.79333 20.2 8.1 20.2Z" fill="#628DCF"/>
<path d="M21.12 20.2C20.0667 20.2 19.0933 20.02 18.2 19.66C17.32 19.3 16.5533 18.8 15.9 18.16C15.26 17.5067 14.76 16.74 14.4 15.86C14.04 14.9667 13.86 13.9933 13.86 12.94C13.86 11.9 14.04 10.94 14.4 10.06C14.76 9.16667 15.26 8.39333 15.9 7.74C16.5533 7.08667 17.32 6.58 18.2 6.22C19.0933 5.86 20.0667 5.68 21.12 5.68C22.16 5.68 23.12 5.86 24 6.22C24.88 6.58 25.64 7.08667 26.28 7.74C26.9333 8.39333 27.44 9.16667 27.8 10.06C28.16 10.94 28.34 11.9067 28.34 12.96C28.34 14 28.16 14.96 27.8 15.84C27.44 16.72 26.9333 17.4867 26.28 18.14C25.64 18.7933 24.88 19.3 24 19.66C23.12 20.02 22.16 20.2 21.12 20.2ZM21.12 16.98C21.6667 16.98 22.1667 16.88 22.62 16.68C23.0733 16.48 23.4667 16.2 23.8 15.84C24.1467 15.48 24.4133 15.0533 24.6 14.56C24.7867 14.0667 24.88 13.5333 24.88 12.96C24.88 12.3733 24.7867 11.8333 24.6 11.34C24.4133 10.8467 24.1467 10.42 23.8 10.06C23.4667 9.68667 23.0733 9.4 22.62 9.2C22.1667 9 21.6667 8.9 21.12 8.9C20.5733 8.9 20.0667 9 19.6 9.2C19.1467 9.4 18.7467 9.68667 18.4 10.06C18.0667 10.42 17.8067 10.8467 17.62 11.34C17.4333 11.8333 17.34 12.3733 17.34 12.96C17.34 13.7333 17.5 14.4267 17.82 15.04C18.1533 15.64 18.6 16.1133 19.16 16.46C19.7333 16.8067 20.3867 16.98 21.12 16.98Z" fill="#628DCF"/>
<path d="M1.74 38.7647V24.7647H7.64C8.66667 24.7647 9.60667 24.938 10.46 25.2847C11.3133 25.618 12.0467 26.098 12.66 26.7247C13.2733 27.338 13.7467 28.078 14.08 28.9447C14.4133 29.798 14.58 30.738 14.58 31.7647C14.58 32.8047 14.4133 33.7514 14.08 34.6047C13.7467 35.458 13.2733 36.198 12.66 36.8247C12.0467 37.438 11.3133 37.918 10.46 38.2647C9.62 38.598 8.68 38.7647 7.64 38.7647H1.74ZM5.16 36.4047L4.72 35.7447H7.54C8.08667 35.7447 8.58 35.6514 9.02 35.4647C9.46 35.278 9.83333 35.0114 10.14 34.6647C10.46 34.3047 10.7 33.8847 10.86 33.4047C11.0333 32.9114 11.12 32.3647 11.12 31.7647C11.12 31.1647 11.0333 30.6247 10.86 30.1447C10.7 29.6514 10.46 29.2314 10.14 28.8847C9.83333 28.5247 9.46 28.2514 9.02 28.0647C8.58 27.878 8.08667 27.7847 7.54 27.7847H4.66L5.16 27.1647V36.4047ZM15.5892 38.7647V24.7647H25.3492V27.6847H18.9292V35.8447H25.5692V38.7647H15.5892ZM17.2092 33.0447V30.2447H24.4692V33.0447H17.2092Z" fill="white"/>
</svg>
